<svg id="Layer_1" data-name="Layer 1" xmlns="http://www.w3.org/2000/svg" viewBox="0 0 50 50"><defs><style>.cls-1{fill:#fff;}</style></defs><title>facebook</title><path class="cls-1" d="M32.63,50V31.05H39l1-7.39H32.63V19c0-2.14.6-3.6,3.66-3.6h3.92V8.74a52.49,52.49,0,0,0-5.7-.29c-5.64,0-9.5,3.44-9.5,9.77v5.44H18.63v7.39H25V50Z"/><path class="cls-1" d="M45,1a4,4,0,0,1,4,4V45a4,4,0,0,1-4,4H5a4,4,0,0,1-4-4V5A4,4,0,0,1,5,1H45m0-1H5A5,5,0,0,0,0,5V45a5,5,0,0,0,5,5H45a5,5,0,0,0,5-5V5a5,5,0,0,0-5-5Z"/></svg>