<svg id="Layer_1" data-name="Layer 1" xmlns="http://www.w3.org/2000/svg" viewBox="0 0 50 50"><defs><style>.cls-1{fill:#fff;}</style></defs><title>instgram</title><path class="cls-1" d="M25,40.1c-2.07,0-4.14-.05-6.21-.11a9.66,9.66,0,0,1-5-1.32,7.8,7.8,0,0,1-3.6-5.3A28,28,0,0,1,9.92,28c0-2.61,0-5.21,0-7.81a14.44,14.44,0,0,1,.62-4.75,7.72,7.72,0,0,1,6.06-5.24,25.71,25.71,0,0,1,5.26-.34c2.63,0,5.25,0,7.87,0a14.5,14.5,0,0,1,4.76.62,7.68,7.68,0,0,1,5.23,6.06,26,26,0,0,1,.34,5.29c0,2.61,0,5.23,0,7.84a14.44,14.44,0,0,1-.62,4.75,7.72,7.72,0,0,1-6.06,5.24,27.49,27.49,0,0,1-5.36.34H25ZM12.59,25h.05c0,1.27,0,2.54,0,3.8a29.07,29.07,0,0,0,.27,3.85A5,5,0,0,0,16.81,37a15.13,15.13,0,0,0,3.67.35c2.08,0,4.17.06,6.25,0,1.84,0,3.68,0,5.51-.21a5.11,5.11,0,0,0,4.8-4.2,19.77,19.77,0,0,0,.31-4.14c0-2.54,0-5.09,0-7.63a32.9,32.9,0,0,0-.26-3.85A5.08,5.08,0,0,0,33,13a19.44,19.44,0,0,0-4.17-.31c-2.54,0-5.07,0-7.61,0a28,28,0,0,0-3.88.26,4.88,4.88,0,0,0-4.22,3.67,9.77,9.77,0,0,0-.36,2.27C12.65,20.89,12.64,22.94,12.59,25Z"/><path class="cls-1" d="M32.75,25a7.76,7.76,0,1,1-15.51-.07A7.76,7.76,0,0,1,32.75,25ZM25,20a5,5,0,1,0,5,5A5.05,5.05,0,0,0,25,20Z"/><path class="cls-1" d="M34.86,16.92a1.82,1.82,0,1,1-3.63,0,1.81,1.81,0,0,1,1.8-1.8A1.76,1.76,0,0,1,34.86,16.92Z"/><path class="cls-1" d="M45,1a4,4,0,0,1,4,4V45a4,4,0,0,1-4,4H5a4,4,0,0,1-4-4V5A4,4,0,0,1,5,1H45m0-1H5A5,5,0,0,0,0,5V45a5,5,0,0,0,5,5H45a5,5,0,0,0,5-5V5a5,5,0,0,0-5-5Z"/></svg>