<svg id="Layer_1" data-name="Layer 1" xmlns="http://www.w3.org/2000/svg" viewBox="0 0 50 50"><defs><style>.cls-1{fill:#fff;}</style></defs><title>linkedin</title><path class="cls-1" d="M26.79,22.7c.31-.39.57-.74.87-1.07a5.81,5.81,0,0,1,3.53-1.91,7.82,7.82,0,0,1,4.38.48,6.54,6.54,0,0,1,3.72,4.29,12.43,12.43,0,0,1,.53,3.78V39.14H33.46v-.33q0-5.09,0-10.17a5.42,5.42,0,0,0-.53-2.47,2.79,2.79,0,0,0-2.84-1.54,3.2,3.2,0,0,0-2.19,1A3.42,3.42,0,0,0,26.8,28c0,.45,0,.91,0,1.36v9.83H20.45V20.05h6.06c.22,0,.29.06.28.28C26.78,21.11,26.79,21.88,26.79,22.7Z"/><path class="cls-1" d="M16.89,20.07V39.16H10.84c-.23,0-.27-.08-.27-.29V20.07Z"/><path class="cls-1" d="M13.73,17.45a3.39,3.39,0,0,1-3-1.54,3.23,3.23,0,0,1,1.8-4.86,3.86,3.86,0,0,1,3.52.47,3.11,3.11,0,0,1,1.29,3.06,3,3,0,0,1-2.08,2.6,11.79,11.79,0,0,1-1.48.33Z"/><path class="cls-1" d="M45,1a4,4,0,0,1,4,4V45a4,4,0,0,1-4,4H5a4,4,0,0,1-4-4V5A4,4,0,0,1,5,1H45m0-1H5A5,5,0,0,0,0,5V45a5,5,0,0,0,5,5H45a5,5,0,0,0,5-5V5a5,5,0,0,0-5-5Z"/></svg>