<svg id="Layer_2" data-name="Layer 2" xmlns="http://www.w3.org/2000/svg" viewBox="0 0 50 50"><defs><style>.cls-1{fill:#59c2b1;}</style></defs><title>twitterGREEN</title><path class="cls-1" d="M42,11a7.64,7.64,0,0,1-3,4,16.71,16.71,0,0,0,4-1c-.26.34-.51.7-.78,1a14.32,14.32,0,0,1-2.58,2.46.54.54,0,0,0-.25.49A21.3,21.3,0,0,1,34,32.62a19.44,19.44,0,0,1-11.36,6.56,21.84,21.84,0,0,1-7.39.19,20.64,20.64,0,0,1-8-2.94l-.18-.14a15.07,15.07,0,0,0,10.82-3A7.46,7.46,0,0,1,12.76,31a6.31,6.31,0,0,1-1.64-2.85A7.2,7.2,0,0,0,14.31,28a7.46,7.46,0,0,1-4.79-3.46,7.08,7.08,0,0,1-1-3.85,7.66,7.66,0,0,0,3.27.89,7.41,7.41,0,0,1-2.23-9.8,21,21,0,0,0,15.19,7.69,7.62,7.62,0,0,1-.08-2.89,7.09,7.09,0,0,1,3.27-5,7.29,7.29,0,0,1,9.15.93.5.5,0,0,0,.52.14,15,15,0,0,0,3.94-1.49Z"/><path class="cls-1" d="M45,1a4,4,0,0,1,4,4V45a4,4,0,0,1-4,4H5a4,4,0,0,1-4-4V5A4,4,0,0,1,5,1H45m0-1H5A5,5,0,0,0,0,5V45a5,5,0,0,0,5,5H45a5,5,0,0,0,5-5V5a5,5,0,0,0-5-5Z"/></svg>